<?xml version="1.0" encoding="UTF-8"?>
<!-- This file is generated by npm run build:icons -->
<svg xmlns="http://www.w3.org/2000/svg" xmlns:xlink="http://www.w3.org/1999/xlink" width="0" height="0">
  <defs>
    <symbol viewBox="2197.585 4377.89 24.52 45.781" id="brand/facebook">
      <path
        d="m2220.441 4403.64 1.29-8.281h-7.949v-5.383c0-2.265 1.11-4.477 4.659-4.477h3.665v-7.052a44.014 44.014 0 0 0-6.453-.557c-6.543 0-10.815 3.973-10.815 11.154v6.315h-7.253v8.281h7.253v20.031h8.944v-20.031h6.659Z"
        data-testid="svg-path"></path>
    </symbol>
    <symbol viewBox="2074.268 4375.781 50.028 50" id="brand/instagram">
      <path
        d="M2090.946 4400.781a8.336 8.336 0 0 1 8.337-8.334c4.605 0 8.339 3.732 8.339 8.334 0 4.602-3.734 8.334-8.339 8.334a8.336 8.336 0 0 1-8.337-8.334Zm-4.508 0c0 7.09 5.75 12.837 12.845 12.837 7.094 0 12.845-5.747 12.845-12.837s-5.751-12.837-12.845-12.837c-7.095 0-12.845 5.747-12.845 12.837Zm23.196-13.346a3.002 3.002 0 1 0 5.776-1.146 3.006 3.006 0 0 0-2.773-1.853h-.001a3.004 3.004 0 0 0-3.002 2.999Zm-20.458 33.695c-2.438-.111-3.764-.517-4.645-.86-1.168-.454-2.001-.995-2.877-1.87-.876-.874-1.419-1.706-1.871-2.873-.344-.88-.75-2.206-.861-4.643-.121-2.635-.145-3.427-.145-10.103s.026-7.466.145-10.103c.111-2.437.521-3.76.861-4.643.454-1.167.996-2 1.871-2.875.875-.876 1.707-1.418 2.877-1.87.881-.343 2.207-.749 4.645-.86 2.637-.121 3.429-.146 10.107-.146 6.677 0 7.47.027 10.109.146 2.439.111 3.762.52 4.645.86 1.168.452 2.001.995 2.877 1.87.877.874 1.417 1.708 1.871 2.875.344.88.75 2.206.861 4.643.121 2.637.146 3.427.146 10.103s-.025 7.466-.146 10.103c-.111 2.437-.519 3.762-.861 4.643-.454 1.167-.996 2-1.871 2.873-.875.874-1.709 1.416-2.877 1.87-.88.343-2.206.749-4.645.86-2.637.121-3.429.146-10.109.146-6.681 0-7.47-.025-10.107-.146Zm-.207-45.198c-2.663.121-4.482.543-6.071 1.161-1.646.639-3.039 1.495-4.432 2.884-1.392 1.389-2.246 2.784-2.885 4.429-.618 1.589-1.041 3.406-1.162 6.068-.123 2.665-.151 3.518-.151 10.307 0 6.789.028 7.641.151 10.307.121 2.661.544 4.479 1.162 6.068.639 1.644 1.493 3.04 2.885 4.429 1.392 1.388 2.786 2.243 4.432 2.883 1.592.618 3.408 1.04 6.071 1.161 2.669.122 3.52.152 10.314.152 6.793 0 7.646-.028 10.313-.152 2.663-.121 4.482-.543 6.072-1.161 1.644-.64 3.039-1.494 4.431-2.883 1.392-1.39 2.245-2.785 2.885-4.429.619-1.589 1.043-3.407 1.162-6.068.121-2.668.15-3.518.15-10.307 0-6.789-.029-7.642-.15-10.307-.121-2.662-.543-4.48-1.162-6.068-.64-1.644-1.495-3.038-2.885-4.429-1.39-1.391-2.787-2.245-4.429-2.884-1.592-.618-3.411-1.042-6.072-1.161-2.667-.121-3.52-.151-10.313-.151-6.794 0-7.647.028-10.316.151Z"
        data-testid="svg-path"></path>
    </symbol>
    <symbol viewBox="1971.383 4378.014 34.793 45.781" id="brand/pinterest">
      <path
        d="M1986.542 4378.167c-7.432.849-14.837 7.005-15.143 15.797-.192 5.368 1.297 9.395 6.288 10.526 2.165-3.911-.699-4.774-1.144-7.603-1.83-11.595 13.064-19.502 20.858-11.407 5.392 5.605 1.842 22.849-6.855 21.057-8.331-1.712 4.078-15.439-2.572-18.134-5.406-2.19-8.279 6.7-5.716 11.117-1.502 7.594-4.737 14.75-3.427 24.275 4.248-3.156 5.68-9.199 6.855-15.501 2.135 1.327 3.275 2.709 5.999 2.923 10.047.796 15.658-10.267 14.287-20.472-1.218-9.047-10.038-13.65-19.43-12.578Z"
        data-testid="svg-path"></path>
    </symbol>
    <symbol viewBox="0 0 256 256" id="phosphor/arrow-circle-right">
      <path
        d="M128,24A104,104,0,1,0,232,128,104.11,104.11,0,0,0,128,24Zm0,192a88,88,0,1,1,88-88A88.1,88.1,0,0,1,128,216Zm45.66-93.66a8,8,0,0,1,0,11.32l-32,32a8,8,0,0,1-11.32-11.32L148.69,136H88a8,8,0,0,1,0-16h60.69l-18.35-18.34a8,8,0,0,1,11.32-11.32Z">
      </path>
    </symbol>
    <symbol viewBox="0 0 15 15" fill="none" id="radix/arrow-right">
      <path fill-rule="evenodd" clip-rule="evenodd"
        d="M8.14645 3.14645C8.34171 2.95118 8.65829 2.95118 8.85355 3.14645L12.8536 7.14645C13.0488 7.34171 13.0488 7.65829 12.8536 7.85355L8.85355 11.8536C8.65829 12.0488 8.34171 12.0488 8.14645 11.8536C7.95118 11.6583 7.95118 11.3417 8.14645 11.1464L11.2929 8H2.5C2.22386 8 2 7.77614 2 7.5C2 7.22386 2.22386 7 2.5 7H11.2929L8.14645 3.85355C7.95118 3.65829 7.95118 3.34171 8.14645 3.14645Z"
        fill="currentColor"></path>
    </symbol>
  </defs>
</svg>