<svg width="24" xmlns="http://www.w3.org/2000/svg" height="32" viewBox="4 -4 24 32" fill="none">
      <g data-testid="svg-g">
        <g data-testid="svg-path">
          <defs>
            <clipPath
              clipPathUnits="userSpaceOnUse"
              id="a"
              transform="matrix(0 1.27136 1.24675 0 12.166 28)"
            >
              <path d="M-45.294 127.311h72V-48.051h-72Z" />
            </clipPath>
          </defs>
          <path
            d="M12.166 28c-.224 0-.449-.178-.698-.547-.224-.343-.474-.724-.673-1.195-.723-1.767-1.446-4.449-1.683-5.708a94.462 94.462 0 0 1-.674-3.916 66.032 66.032 0 0 1-.436-3.7c-.112-1.271-.162-2.186-.162-2.873.012-.724.112-1.92.175-2.059.037-.089.124-.166.261-.204.349-.102 1.073-.038 1.397.191.137.102.286.216.399.432.099.204.149.496.149.916-.012.012-.037 1.589-.012 1.881.025.178.037.267.062.318.075-.051.287-.178.823-.61a91.974 91.974 0 0 0 1.97-1.64c.735-.636 1.558-1.361 2.493-2.212.898-.814 1.758-1.59 2.594-2.34.324-.305.773-.737 1.321-1.284a28.006 28.006 0 0 0 1.646-1.78 21.643 21.643 0 0 0 1.409-1.767c.386-.534.573-.941.573-1.208 0-.33-.099-.33-.137-.33-.224 0-.723.114-1.471.318-.748.203-1.633.483-2.606.826-.972.343-1.982.75-2.992 1.195a23.916 23.916 0 0 0-2.73 1.386 39.978 39.978 0 0 0-2.469 1.881 71.355 71.355 0 0 0-2.219 1.958 47.19 47.19 0 0 0-1.633 1.577c-.561.572-.649.686-.661.712l-.025.038a.108.108 0 0 0-.05.089c0 .025 0 .076.05.203.05.115.075.216.075.293 0 .165-.125.267-.225.33-.262.178-1.134.166-1.483-.038C4.15 8.917 4 8.625 4 8.116c0-.445.237-.992.723-1.653.474-.635 1.097-1.322 1.858-2.047a29.195 29.195 0 0 1 2.506-2.148A51.917 51.917 0 0 1 11.792.297a30.137 30.137 0 0 1 2.905-1.653 36.627 36.627 0 0 1 3.117-1.385c1.01-.382 1.995-.7 2.905-.928.923-.217 1.683-.331 2.282-.331.249 0 .523.025.822.089.3.064.599.153.873.28.274.127.511.292.698.496.2.228.3.483.3.788 0 .826-.237 1.691-.724 2.568-.473.864-1.109 1.742-1.87 2.619a42.814 42.814 0 0 1-2.593 2.644c-.96.878-1.932 1.755-2.88 2.568-.96.827-1.883 1.628-2.768 2.391a32.828 32.828 0 0 0-1.808 1.69c.287-.114.636-.241 1.06-.406a40.262 40.262 0 0 1 2.419-.865 32.95 32.95 0 0 1 2.643-.75c.898-.216 1.696-.318 2.369-.318.199 0 .598.013 1.334.051.686.025 1.409.153 2.157.356a5.952 5.952 0 0 1 2.032 1.043c.611.483.935 1.182.935 2.059a5.45 5.45 0 0 1-.549 2.352c-.361.763-.81 1.488-1.346 2.149a15.05 15.05 0 0 1-1.733 1.843c-.611.56-1.184 1.03-1.683 1.424-.536.42-1.16.877-1.87 1.36-.175.115-.337.242-.511.356a17.96 17.96 0 0 1-1.559 1.005 19.915 19.915 0 0 0-3.927 2.873c-.337.305-.798.394-1.21.203-.398-.177-.635-.572-.635-1.055v-.012c0-.738 2.107-2.556 3.378-3.268l.125-.076c.623-.356 1.484-.826 2.518-1.5a40.597 40.597 0 0 0 2.033-1.412 23.037 23.037 0 0 0 2.244-1.894 13.21 13.21 0 0 0 1.795-2.098c.486-.712.736-1.411.736-2.072 0-.114-.125-.369-.885-.712-.611-.28-1.497-.419-2.619-.419-1.172 0-2.406.178-3.69.534-1.284.356-2.494.75-3.591 1.169a48.78 48.78 0 0 0-2.842 1.17c-.836.381-1.197.496-1.384.534.025.737.149 1.576.274 2.466.324 2.263.935 5.022 1.334 6.853.287 1.284.412 1.92.424 2.085-.012.559-.237.839-.661.839Z"
            clipPath="url(#a)"
            style={{
              fillRule: 'nonzero',
              clipPath: 'nonzero',
              stroke: 'none',
              fill: 'rgb(239, 203, 29)',
              fillOpacity: 1,
            }}
          />
        </g>
      </g>
    </svg>