<?xml version="1.0" encoding="UTF-8" standalone="no"?>
<svg
   height="32"
   id="screenshot-f73fcbd6-430b-80ec-8006-536f46262c07"
   viewBox="-101 0 1614.9493 764.80624"
   fill="none"
   version="1.1"
   xmlns="http://www.w3.org/2000/svg"
   xmlns:svg="http://www.w3.org/2000/svg">
  <defs
     id="defs5" />
  <g
     id="g23"
     transform="translate(1733.3893,-827.88715)">
    <g
       id="shape-f73fcbd6-430b-80ec-8006-536f46262c07-4"
       rx="0"
       ry="0"
       transform="translate(-1834.3893,827.88709)"
       style="fill:#000000">
      <g
         id="shape-f73fcbd6-430b-80ec-8006-536f46262c08-7"
         style="fill:#000000">
        <g
           class="fills"
           id="fills-f73fcbd6-430b-80ec-8006-536f46262c08-8"
           style="fill:#000000">
          <path
             d="M 361.5,21 C 201.169,21 71,151.169 71,311.5 71,471.831 201.169,602 361.5,602 435.798,602 503.618,574.048 555.01,528.095 496.855,593.653 411.968,635 317.5,635 142.267,635 0,492.733 0,317.5 0,142.267 142.267,0 317.5,0 380.969,0 440.114,18.664 489.74,50.798 451.106,31.737 407.547,21 361.5,21 Z"
             style="fill:#000000;fill-opacity:1"
             id="path1-4" />
        </g>
      </g>
      <g
         id="shape-f73fcbd6-430b-80ec-8006-536f46262c09-5"
         style="fill:#000000">
        <g
           class="fills"
           id="fills-f73fcbd6-430b-80ec-8006-536f46262c09-0"
           style="fill:#000000">
          <path
             d="m 334.631,619.955 35.964,-26.053 c 7.72,14.685 13.033,26.699 15.405,29.598 3,-1 1.598,-2.804 4,-1 4.585,3.444 3.977,10.313 7.5,20 2,5.5 17.274,1.263 24.5,11.5 12,17 2.784,19.048 8,42 5,22 6,43 -12,62 -16.056,16.948 -25,-2 -27,-11 -4,-18 -4,-42 -6,-45 -2,-3 -4,-3 -8,-14 -0.969,-2.664 1,-7.5 -2.5,-12 -6.005,-7.721 -9.453,-17.68 -14,-24.5 -3.656,-5.484 -15.296,-19.695 -25.869,-31.545 z"
             style="fill:#000000;fill-opacity:1"
             id="path2-3" />
        </g>
      </g>
      <g
         id="shape-f73fcbd6-430b-80ec-8006-536f46262c0a-6"
         style="fill:#000000">
        <g
           class="fills"
           id="fills-f73fcbd6-430b-80ec-8006-536f46262c0a-1"
           style="fill:#000000">
          <path
             d="M 48.688,486.438 C 17.848,437.499 0,379.568 0,317.5 0,182.284 84.709,66.696 203.909,20.956 L 218,21 c 0,0 10,15 10,30 0,15 2,-4 8,5 6,9 6,14 3,21 -3,7 -3,14 1,17 4,3 25,13 23,25 -2,12 -12,12 -11,28 1,16 -4,10 -4,10 0,0 2,4 1,8 -1,4 -1,7 -2,17 -1,10 -2,11 -2,11 -11,-5 -9,-1 -9,-1 0,0 -4,4 -6,14 -2,10 -7,17 -9,19 -2,2 -6,-1 -13,5 -7,6 -14,38 -20,41 -6,3 -23,37 -21,47 2,10 -1,29 -16,41 -15,12 -29,18 -31,31 -2,13 -21,30 -20,36 1,6 -22,43 -29,43 -5.747,0 -16.886,10.785 -22.312,17.438 z"
             style="fill:#000000;fill-opacity:1"
             id="path3-0" />
        </g>
      </g>
      <g
         id="shape-f73fcbd6-430b-80ec-8006-536f46262c0b-6"
         style="fill:#000000">
        <g
           class="fills"
           id="fills-f73fcbd6-430b-80ec-8006-536f46262c0b-3"
           style="fill:#000000">
          <path
             d="m 343.1,207.451 c 2,-12 -13,-16 -6.418,-22.941 5.838,-6.158 4,-10 10,-17 2.25,-2.625 1.261,-4.176 1.418,-6.059 0.5,-6 13,0.5 13,0.5 0,0 -0.5,-10.5 9.5,-11.5 C 377,143.839 382.5,141 391,145 c 0,0 36,7 36,44 0,18.168 -9,12.5 -9.5,20.5 0,0 15.5,8.5 20.5,27.5 15.5,12.5 21.5,19.5 29.5,33 12.5,7.5 27.5,11.5 39.5,32.5 20.5,9.5 17.128,13.799 29,21.5 18.5,12 13,12.5 14.5,15 1.5,2.5 5,10 0,13 3,6 2.869,8.506 -3.5,14.5 -8.5,8 -27.757,21.057 -15.5,1 5.5,-9 -7.565,-7.219 -10,-15.5 -2.5,-8.5 -7,-14 -7,-14 0,0 -52.5,-14.5 -65,-34.5 -6.5,-13 -15,-18 -15,-18 0,0 -13.5,-5.5 -20.5,-5.5 -7.5,2.5 -29.5,12.945 -29.5,22 0,7 1.5,12 -5,21 -3.5,-2 1.5,13.5 -7.5,14.5 -1.5,9 1.297,6.987 1,13 -2,40.5 -2.296,66.88 -12.5,80 -14,18 -21.49,21.133 -34.5,22 -15,1 -19.5,27 -28,48.5 -1.676,4.24 -5.5,9 0.5,20 3.599,3.638 15.208,5.536 24.5,11.5 33.5,21.5 57.162,83.864 63,91 3,-1 1.598,-2.804 4,-1 4.585,3.444 3.977,10.313 7.5,20 2,5.5 17.274,1.263 24.5,11.5 12,17 2.784,19.048 8,42 5,22 6,43 -12,62 -16.056,16.948 -25,-2 -27,-11 -4,-18 -4,-42 -6,-45 -2,-3 -4,-3 -8,-14 -0.969,-2.664 1,-7.5 -2.5,-12 -6.005,-7.721 -9.453,-17.68 -14,-24.5 -6,-9 -33.5,-41.5 -42.5,-48.5 -9,-7 -16.449,-18.487 -28,-31 -12,-13 -20.047,-21.268 -30,-25 -8,-3 -21,-9 -21,-32 0,-23 8,-48 11,-69 -14,-3 -62,-11 -69,-10 -7,1 2.195,25.359 -39,60 -22,18.5 -44,51 -49,66 -1.703,5.109 -9,14 -21,5 -12,-9 -13,-20 -28,-26 -15,-6 -29.5,-22 -29.5,-28 0,-6 16.131,-6.148 31.5,0 12.5,5 20,-1.5 25,-3.5 1.914,-0.766 7.5,2.5 13,-1.5 9.051,-6.583 22.637,-27.713 38,-53.5 14,-23.5 19,-27.5 21,-33.5 6.107,-18.322 1,-31 27,-34 15.926,-1.838 34.5,-4 44,-8 -4,-15 45.5,-1 50,-5 14.836,-13.187 18,-46 23,-72 1.58,-8.217 9,-57 16,-58 -2,-10 3,-10.75 5,-11 -6.5,-27 -14,-35 -17.5,-47.5 -8,-14 -23,-16.5 -19,-54.5 -7.5,-16.5 -11,-11.5 -15,-16.5 -4,-5 -14.5,-15 -16.5,-23 -2,-8 4.5,-12.5 13,-11.5 5.5,-9 17,5 18,12 1,7 15,18 14,22 -0.617,2.469 13.876,19.3 21,33 4.418,8.498 5,12 6,21 5,5 11,22 13,25 8,-4 18.1,14.451 18.1,14.451 z"
             style="fill:#000000;fill-opacity:1"
             id="path4-2" />
        </g>
      </g>
      <g
         id="shape-f73fcbd6-430b-80ec-8006-53707bbdc86a-0"
         style="fill:#000000">
        <g
           class="fills"
           id="fills-f73fcbd6-430b-80ec-8006-53707bbdc86a-6"
           style="fill:#000000">
          <path
             d="m 400.449,11 c 0,0 112.659,24.987 114.051,84.957 1.425,61.398 -74.815,59.256 -84.79,19.99 -3.686,-14.509 0.712,-32.127 0.712,-32.127 3.763,0.29 12.113,0.714 17.101,0 1.57,-8.126 4.941,-30.698 1.378,-38.552 C 442.55,31.268 418.5,26 406.15,23.851 394.901,21.893 400.449,11 400.449,11 Z"
             style="fill:#000000;fill-opacity:1"
             id="path5-1" />
        </g>
      </g>
    </g>
    <g
       id="text7"
       style="font-size:12px;font-family:FreeMono;-inkscape-font-specification:'FreeMono, Normal';white-space:pre;fill:#000000;stroke:#ffffff"
       transform="matrix(20.491157,0,0,20.491157,11629.876,4493.3018)"
       aria-label="better&#10;climber">
      <path
         style="font-family:'Abril Fatface';-inkscape-font-specification:'Abril Fatface, Normal';stroke:none;stroke-width:1.20523"
         d="m -622.85685,-169.6043 q 0,-1.53482 -0.14037,-2.05636 -0.14038,-0.53644 -0.54746,-0.53644 -0.40708,0 -0.72993,0.53644 -0.32286,0.53644 -0.32286,1.47521 v 2.77162 q 0,0.64075 0.23863,1.08778 0.25267,0.44704 0.70187,0.44704 0.46322,0 0.63167,-0.65565 0.16845,-0.65566 0.16845,-2.29478 z m -1.74062,-7.16745 v 5.2154 q 0.53342,-1.2815 1.82484,-1.2815 2.62497,0 2.62497,3.71039 0,1.89244 -0.72994,2.78651 -0.7159,0.89407 -2.16174,0.89407 -0.72993,0 -1.12298,-0.23842 -0.379,-0.23842 -0.51937,-0.78976 l -0.0983,0.87917 h -3.2005 v -0.26822 h 0.77205 v -10.63942 h -0.77205 v -0.26822 z m 8.56271,11.32487 q -1.81081,0 -2.72323,-0.98348 -0.89838,-0.99837 -0.89838,-2.75671 0,-1.77323 1.01068,-2.71201 1.02472,-0.93877 2.59689,-0.93877 3.18645,0 3.06012,3.39746 h -3.9585 v 0.58115 q 0,1.46031 0.35093,2.20537 0.35093,0.74505 1.22124,0.74505 1.62832,0 2.13366,-1.84774 l 0.25267,0.0447 q -0.26671,1.07289 -0.96857,1.66893 -0.68783,0.59605 -2.07751,0.59605 z m -0.89839,-4.29153 h 1.44584 v -0.73016 q 0,-1.20699 -0.14037,-1.63912 -0.12634,-0.44704 -0.53342,-0.44704 -0.39304,0 -0.58956,0.47684 -0.18249,0.46194 -0.18249,1.60932 z m 5.01131,2.01165 v -4.69386 h -0.77205 v -0.26822 h 0.77205 v -1.92224 l 2.61093,-0.68546 v 2.6077 h 2.04944 v -1.92224 l 2.61092,-0.68546 v 2.6077 h 1.82485 v 0.26822 h -1.82485 v 5.02169 q 0,0.70035 0.12634,1.02818 0.14037,0.32782 0.56149,0.32782 0.42112,0 0.72994,-0.44703 0.32285,-0.44704 0.42111,-1.2219 l 0.23864,0.0298 q -0.1123,1.02818 -0.61764,1.63912 -0.50534,0.59605 -1.57217,0.59605 -1.06683,0 -1.6564,-0.31293 -0.57553,-0.32782 -0.75801,-1.14738 -0.50534,1.46031 -2.28807,1.46031 -1.17913,0 -1.82484,-0.49174 -0.63168,-0.49174 -0.63168,-1.78814 z m 4.66037,0 v -4.69386 h -2.04944 v 5.02169 q 0,0.71525 0.16845,1.04308 0.16844,0.31292 0.63167,0.31292 0.47727,0 0.81416,-0.44703 0.3369,-0.46194 0.43516,-1.2368 z m 8.5206,2.27988 q -1.8108,0 -2.72322,-0.98348 -0.89838,-0.99837 -0.89838,-2.75671 0,-1.77323 1.01068,-2.71201 1.02472,-0.93877 2.59689,-0.93877 3.18645,0 3.06012,3.39746 h -3.95851 v 0.58115 q 0,1.46031 0.35093,2.20537 0.35094,0.74505 1.22124,0.74505 1.62833,0 2.13367,-1.84774 l 0.25267,0.0447 q -0.26671,1.07289 -0.96857,1.66893 -0.68783,0.59605 -2.07752,0.59605 z m -0.89838,-4.29153 h 1.44584 v -0.73016 q 0,-1.20699 -0.14038,-1.63912 -0.12633,-0.44704 -0.53341,-0.44704 -0.39304,0 -0.58957,0.47684 -0.18248,0.46194 -0.18248,1.60932 z m 9.13826,-2.5332 q -0.51938,0 -0.91242,0.71526 -0.39305,0.71525 -0.39305,1.69873 v 3.99351 h 0.99665 v 0.26822 h -4.37962 v -0.26822 h 0.77205 v -6.55651 h -0.77205 v -0.26822 h 3.38297 v 1.43051 q 0.18249,-0.75996 0.70187,-1.16229 0.51938,-0.41723 1.17913,-0.41723 0.65975,0 1.06683,0.40233 0.42111,0.38743 0.42111,1.11759 0,0.71525 -0.30882,1.10268 -0.30882,0.38743 -0.95453,0.38743 -0.63167,0 -0.94049,-0.44703 -0.29479,-0.44704 -0.0702,-1.2368 h 0.50534 q 0.35093,-0.75996 -0.29478,-0.75996 z"
         id="path21" />
      <path
         style="font-family:'Abril Fatface';-inkscape-font-specification:'Abril Fatface, Normal';word-spacing:0px;stroke:none;stroke-width:1.20523"
         d="m -624.57372,-159.93623 q -0.61764,0 -0.88435,0.71526 -0.26671,0.71525 -0.26671,2.36928 v 0.77486 q 0,1.47521 0.30882,2.11596 0.30882,0.64075 1.13702,0.64075 0.8282,0 1.3195,-0.59604 0.4913,-0.59605 0.63168,-1.35601 l 0.25267,0.0298 q -0.26671,1.2815 -0.98261,1.84775 -0.72994,0.58114 -2.00733,0.58114 -1.62832,0 -2.49863,-0.92387 -0.87031,-0.93877 -0.87031,-2.72691 0,-1.80304 0.98261,-2.77161 0.99665,-0.96858 2.76534,-0.96858 1.24931,0 1.90906,0.52154 0.65975,0.50664 0.65975,1.2815 0,0.77486 -0.32285,1.13249 -0.30882,0.35763 -0.87031,0.35763 -0.54745,0 -0.88435,-0.31293 -0.33689,-0.31292 -0.33689,-0.92387 0,-0.26822 0.0702,-0.53644 h 0.46323 q 0.0983,-0.29802 0.0983,-0.53644 0,-0.71526 -0.67378,-0.71526 z m 2.65304,-4.20212 h 3.43912 v 10.90764 h 0.78609 v 0.26822 h -4.16907 v -0.26822 h 0.77205 v -10.63942 h -0.82819 z m 6.55539,3.05474 q -0.74398,0 -1.06683,-0.40234 -0.30882,-0.40233 -0.30882,-0.99837 0,-0.59605 0.33689,-0.98348 0.35093,-0.38743 1.0528,-0.38743 0.70186,0 1.06683,0.35763 0.36496,0.34273 0.36496,0.99838 0,0.64075 -0.35093,1.02818 -0.35093,0.38743 -1.0949,0.38743 z m -2.11963,1.02817 h 3.43913 v 6.82473 h 0.78609 v 0.26822 h -4.16907 v -0.26822 h 0.77205 v -6.5565 h -0.8282 z m 4.50595,0 h 3.38297 v 1.37091 q 0.46323,-1.51992 2.0354,-1.51992 1.58621,0 1.92311,1.60933 0.4913,-1.60933 2.06347,-1.60933 2.06348,0 2.06348,2.48849 v 4.48525 h 0.78608 v 0.26822 h -3.88831 v -0.26822 h 0.4913 v -4.84287 q 0,-1.13249 -0.18248,-1.3262 -0.0842,-0.0894 -0.2246,-0.0894 -0.40708,0 -0.7159,0.58114 -0.30882,0.58115 -0.30882,1.47522 v 4.20212 h 0.50534 v 0.26822 h -3.60757 v -0.26822 h 0.4913 v -4.84287 q 0,-1.13249 -0.18248,-1.3262 -0.0842,-0.0894 -0.2246,-0.0894 -0.39304,0 -0.7159,0.64075 -0.30882,0.62585 -0.30882,1.50501 v 4.11272 h 0.50535 v 0.26822 h -3.88832 v -0.26822 h 0.77205 v -6.5565 h -0.77205 z m 17.58867,3.08454 q 0,-1.53482 -0.14038,-2.05636 -0.14037,-0.53644 -0.54745,-0.53644 -0.40708,0 -0.72994,0.53644 -0.32285,0.53644 -0.32285,1.47522 v 2.77161 q 0,0.64075 0.23863,1.08778 0.25267,0.44704 0.70186,0.44704 0.46323,0 0.63168,-0.65565 0.16845,-0.65565 0.16845,-2.29478 z m -1.74062,-7.16745 v 5.2154 q 0.53341,-1.2815 1.82484,-1.2815 2.62496,0 2.62496,3.71039 0,1.89244 -0.72993,2.78651 -0.7159,0.89407 -2.16174,0.89407 -0.72994,0 -1.12298,-0.23842 -0.379,-0.23842 -0.51938,-0.78976 l -0.0983,0.87917 h -3.20049 v -0.26822 h 0.77205 v -10.63942 h -0.77205 v -0.26822 z m 8.56272,11.32487 q -1.81081,0 -2.72323,-0.98347 -0.89838,-0.99838 -0.89838,-2.75672 0,-1.77323 1.01068,-2.712 1.02472,-0.93878 2.59689,-0.93878 3.18645,0 3.06012,3.39746 h -3.9585 v 0.58115 q 0,1.46031 0.35093,2.20537 0.35093,0.74506 1.22124,0.74506 1.62832,0 2.13366,-1.84775 l 0.25267,0.0447 q -0.26671,1.07288 -0.96857,1.66892 -0.68783,0.59605 -2.07751,0.59605 z m -0.89839,-4.29153 h 1.44584 v -0.73015 q 0,-1.207 -0.14037,-1.63913 -0.12634,-0.44703 -0.53342,-0.44703 -0.39304,0 -0.58956,0.47683 -0.18249,0.46194 -0.18249,1.60933 z m 9.13826,-2.53319 q -0.51938,0 -0.91242,0.71525 -0.39304,0.71526 -0.39304,1.69873 v 3.99351 h 0.99664 v 0.26822 h -4.37962 v -0.26822 h 0.77205 v -6.5565 h -0.77205 v -0.26823 h 3.38298 v 1.43051 q 0.18248,-0.75995 0.70186,-1.16228 0.51938,-0.41724 1.17913,-0.41724 0.65975,0 1.06683,0.40233 0.42112,0.38743 0.42112,1.11759 0,0.71525 -0.30882,1.10268 -0.30882,0.38743 -0.95454,0.38743 -0.63167,0 -0.94049,-0.44703 -0.29478,-0.44703 -0.0702,-1.23679 h 0.50534 q 0.35093,-0.75996 -0.29478,-0.75996 z"
         id="path22" />
    </g>
  </g>
</svg>
