<svg width="94.008" xmlns="http://www.w3.org/2000/svg" height="38.942" fill="none"><g style="fill: rgb(0, 0, 0);"><g style="opacity: 0.9;" data-testid="path1-1"><path d="M.033 33.273c.053.002.183-1.278.749-5.626.393-3.022 1.042-7.584 2.001-12.024.461-2.137.989-4.223 1.59-6.112.212-.665.431-1.301.658-1.903.413-1.095.869-2.121 1.369-3.009.368-.652.754-1.219 1.155-1.678.39-.447.776-.77 1.145-.97.179-.097.347-.162.506-.201a1.602 1.602 0 0 1 .913.035c.164.051.349.13.553.247.317.188.637.456.957.821.315.36.624.805.925 1.34.593 1.056 1.125 2.405 1.622 4.01.487 1.574.925 3.344 1.352 5.249.424 1.897.825 3.865 1.253 5.885.425 2.006.869 4.024 1.368 5.952.503 1.945 1.064 3.806 1.724 5.487.669 1.706 1.452 3.261 2.409 4.545.49.658 1.035 1.258 1.648 1.775a8.066 8.066 0 0 0 2.976 1.602 6.1 6.1 0 0 0 .457.114c.45.096.911.143 1.373.127a4.689 4.689 0 0 0 1.355-.244 4.338 4.338 0 0 0 1.152-.595c.664-.483 1.122-1.102 1.449-1.717.332-.625.57-1.32.746-2.028.356-1.424.516-3.102.605-4.775.09-1.684.114-3.518.165-5.18.052-1.7.133-3.274.328-4.599.097-.657.218-1.226.368-1.703.152-.48.316-.817.476-1.046a1.47 1.47 0 0 1 .199-.236.72.72 0 0 1 .134-.103.449.449 0 0 1 .172-.052 1.26 1.26 0 0 1 .38.02c.352.061.857.24 1.533.625.662.377 1.446.927 2.367 1.695 2.636 2.219 4.952 3.852 7.006 4.984 1.837 1.011 3.487 1.635 4.996 1.91.124.023.248.043.371.061a9.03 9.03 0 0 0 2.23.062 7.824 7.824 0 0 0 1.919-.439 8.645 8.645 0 0 0 1.596-.786c.477-.296.917-.626 1.334-.969.803-.661 1.52-1.373 2.226-1.982.345-.298.683-.567 1.026-.798a5.225 5.225 0 0 1 1.025-.547 3.71 3.71 0 0 1 1.092-.246c.388-.027.824.004 1.322.123a7.718 7.718 0 0 1 1.69.647c.632.322 1.329.756 2.102 1.326 3.281 2.424 6.427 3.767 9.26 4.444 2.976.71 5.597.682 7.663.408a19.52 19.52 0 0 0 5.151-1.402c1.509-.654 1.856-.994 1.833-1.022-.023-.028-.434.228-1.97.761a21.218 21.218 0 0 1-5.099 1.095 20.6 20.6 0 0 1-7.293-.664c-2.654-.729-5.595-2.088-8.666-4.48a17.302 17.302 0 0 0-2.238-1.502 9.567 9.567 0 0 0-1.995-.844 6.287 6.287 0 0 0-1.831-.249 5.583 5.583 0 0 0-1.648.279 7.065 7.065 0 0 0-1.426.658c-.444.264-.861.564-1.255.869-.815.631-1.563 1.299-2.313 1.855-.391.291-.775.547-1.167.765a6.442 6.442 0 0 1-1.221.532 5.5 5.5 0 0 1-1.334.245 6.669 6.669 0 0 1-1.583-.108 7.554 7.554 0 0 1-.277-.056c-1.143-.249-2.503-.79-4.14-1.749-1.831-1.073-3.965-2.644-6.468-4.837-.969-.854-1.854-1.53-2.669-2.038-.819-.511-1.617-.884-2.401-1.078-.4-.1-.807-.155-1.217-.153a4.039 4.039 0 0 0-1.204.185 3.827 3.827 0 0 0-1.039.511c-.305.213-.565.46-.787.722-.442.52-.764 1.136-1.011 1.77a12.81 12.81 0 0 0-.588 2.098c-.298 1.485-.453 3.194-.569 4.906-.117 1.724-.196 3.49-.331 5.122-.136 1.635-.323 3.088-.636 4.229-.155.562-.328 1.004-.511 1.333-.184.33-.341.478-.424.536a.224.224 0 0 1-.06.032c-.004.001-.022.007-.064.009-.047.002-.133 0-.272-.028a2.106 2.106 0 0 1-.16-.038 3.641 3.641 0 0 1-.404-.139 4.242 4.242 0 0 1-1.091-.654 7.371 7.371 0 0 1-1.137-1.175c-.758-.961-1.466-2.228-2.137-3.784-.655-1.521-1.247-3.25-1.807-5.126-.554-1.857-1.065-3.815-1.571-5.803-.505-1.982-1.001-3.974-1.521-5.873-.525-1.917-1.073-3.736-1.681-5.368-.619-1.659-1.302-3.133-2.094-4.327a9.638 9.638 0 0 0-1.322-1.615 6.029 6.029 0 0 0-1.62-1.137A4.903 4.903 0 0 0 10.673.09 4.036 4.036 0 0 0 9.578.008a3.794 3.794 0 0 0-1.033.213 4.154 4.154 0 0 0-.903.455c-.56.372-1.042.868-1.461 1.421a12.155 12.155 0 0 0-1.178 1.957c-.48.977-.903 2.076-1.277 3.214a40.88 40.88 0 0 0-.59 1.972c-.532 1.943-.984 4.072-1.365 6.236C.976 19.994.514 24.498.269 27.607c-.365 4.624-.261 5.664-.236 5.666Z" style="font-variation-settings: &quot;wght&quot; 553; fill-rule: nonzero; stroke: none; stroke-width: 0.815999; fill: rgb(239, 203, 29); fill-opacity: 1;" class="fills" data-testid="svg-path"/></g></g></svg>