 <svg xmlns="http://www.w3.org/2000/svg" viewBox="2074.268 4375.781 50.028 50" >
    <path
      d="M2090.946 4400.781a8.336 8.336 0 0 1 8.337-8.334c4.605 0 8.339 3.732 8.339 8.334 0 4.602-3.734 8.334-8.339 8.334a8.336 8.336 0 0 1-8.337-8.334Zm-4.508 0c0 7.09 5.75 12.837 12.845 12.837 7.094 0 12.845-5.747 12.845-12.837s-5.751-12.837-12.845-12.837c-7.095 0-12.845 5.747-12.845 12.837Zm23.196-13.346a3.002 3.002 0 1 0 5.776-1.146 3.006 3.006 0 0 0-2.773-1.853h-.001a3.004 3.004 0 0 0-3.002 2.999Zm-20.458 33.695c-2.438-.111-3.764-.517-4.645-.86-1.168-.454-2.001-.995-2.877-1.87-.876-.874-1.419-1.706-1.871-2.873-.344-.88-.75-2.206-.861-4.643-.121-2.635-.145-3.427-.145-10.103s.026-7.466.145-10.103c.111-2.437.521-3.76.861-4.643.454-1.167.996-2 1.871-2.875.875-.876 1.707-1.418 2.877-1.87.881-.343 2.207-.749 4.645-.86 2.637-.121 3.429-.146 10.107-.146 6.677 0 7.47.027 10.109.146 2.439.111 3.762.52 4.645.86 1.168.452 2.001.995 2.877 1.87.877.874 1.417 1.708 1.871 2.875.344.88.75 2.206.861 4.643.121 2.637.146 3.427.146 10.103s-.025 7.466-.146 10.103c-.111 2.437-.519 3.762-.861 4.643-.454 1.167-.996 2-1.871 2.873-.875.874-1.709 1.416-2.877 1.87-.88.343-2.206.749-4.645.86-2.637.121-3.429.146-10.109.146-6.681 0-7.47-.025-10.107-.146Zm-.207-45.198c-2.663.121-4.482.543-6.071 1.161-1.646.639-3.039 1.495-4.432 2.884-1.392 1.389-2.246 2.784-2.885 4.429-.618 1.589-1.041 3.406-1.162 6.068-.123 2.665-.151 3.518-.151 10.307 0 6.789.028 7.641.151 10.307.121 2.661.544 4.479 1.162 6.068.639 1.644 1.493 3.04 2.885 4.429 1.392 1.388 2.786 2.243 4.432 2.883 1.592.618 3.408 1.04 6.071 1.161 2.669.122 3.52.152 10.314.152 6.793 0 7.646-.028 10.313-.152 2.663-.121 4.482-.543 6.072-1.161 1.644-.64 3.039-1.494 4.431-2.883 1.392-1.39 2.245-2.785 2.885-4.429.619-1.589 1.043-3.407 1.162-6.068.121-2.668.15-3.518.15-10.307 0-6.789-.029-7.642-.15-10.307-.121-2.662-.543-4.48-1.162-6.068-.64-1.644-1.495-3.038-2.885-4.429-1.39-1.391-2.787-2.245-4.429-2.884-1.592-.618-3.411-1.042-6.072-1.161-2.667-.121-3.52-.151-10.313-.151-6.794 0-7.647.028-10.316.151Z"
      data-testid="svg-path"
    />
  </svg>