 <svg xmlns="http://www.w3.org/2000/svg" viewBox="1971.383 4378.014 34.793 45.781">
    <path
      d="M1986.542 4378.167c-7.432.849-14.837 7.005-15.143 15.797-.192 5.368 1.297 9.395 6.288 10.526 2.165-3.911-.699-4.774-1.144-7.603-1.83-11.595 13.064-19.502 20.858-11.407 5.392 5.605 1.842 22.849-6.855 21.057-8.331-1.712 4.078-15.439-2.572-18.134-5.406-2.19-8.279 6.7-5.716 11.117-1.502 7.594-4.737 14.75-3.427 24.275 4.248-3.156 5.68-9.199 6.855-15.501 2.135 1.327 3.275 2.709 5.999 2.923 10.047.796 15.658-10.267 14.287-20.472-1.218-9.047-10.038-13.65-19.43-12.578Z"
      data-testid="svg-path"
    />
  </svg>